<svg xmlns="http://www.w3.org/2000/svg" width="560" height="430" viewBox="0 0 560 430" fill="none">
  <rect width="560" height="430" rx="36" fill="#F2F4F5"/>
  <ellipse cx="295" cy="285" rx="230" ry="120" fill="url(#g)"/>
  <path d="M185 117l20-10 20 10 6 30-20 20h-24l-16-20 14-30Z" fill="#0A0F1A"/>
  <path d="M178 171c12-14 48-14 63 0l8 22-15 25h-56l-16-25 16-22Z" fill="#17B7D9"/>
  <path d="M116 224c22-22 65-26 100-15 30 9 59 32 84 54 8 7 9 19 2 28-7 8-19 9-27 2-22-18-44-36-66-43-24-8-44-5-60 9-8 7-21 6-28-3-8-8-9-20-1-32Z" fill="#FFFFFF" stroke="#0A0F1A" stroke-width="2"/>
  <path d="M215 222l84 52-29 63-89-13 34-102Z" fill="#0A0F1A"/>
  <path d="M90 239c-12 38 6 95 29 129 10 14 29 18 44 10 14-9 18-28 9-42-18-26-31-67-23-87 7-16-1-35-18-42-17-7-35 1-41 32Z" fill="#36BCD8"/>
  <path d="M180 295c-9 23 0 60 11 82 8 15 27 22 42 16 16-7 24-25 18-41-8-20-14-45-11-58 3-16-6-31-22-36-16-5-31 3-38 37Z" fill="#93D6E6"/>
  <defs>
    <linearGradient id="g" x1="80" y1="200" x2="500" y2="380" gradientUnits="userSpaceOnUse">
      <stop stop-color="#15B6D6"/>
      <stop offset="0.55" stop-color="#7F78B8"/>
      <stop offset="1" stop-color="#A38CD1"/>
    </linearGradient>
  </defs>
</svg>
