<svg xmlns="http://www.w3.org/2000/svg" width="280" height="90" viewBox="0 0 280 90" fill="none">
  <g transform="translate(8,8)">
    <path d="M20 6c6 0 11 5 11 11v6h-4v-6a7 7 0 1 0-14 0v6H9v-6c0-6 5-11 11-11Z" fill="#2C99DB"/>
    <rect x="8" y="23" width="24" height="26" rx="8" stroke="#2C99DB" stroke-width="3"/>
    <circle cx="20" cy="33" r="4" fill="#2C99DB"/>
    <path d="M20 37v10" stroke="#2C99DB" stroke-width="3" stroke-linecap="round"/>
    <circle cx="8" cy="51" r="3" fill="#2C99DB"/>
    <circle cx="20" cy="54" r="3" fill="#2C99DB"/>
    <circle cx="32" cy="51" r="3" fill="#2C99DB"/>
    <path d="M8 48v-5m24 5v-5m-12 8v-4" stroke="#2C99DB" stroke-width="2" stroke-linecap="round"/>
  </g>
  <text x="74" y="42" font-family="Arial, sans-serif" font-size="50" font-weight="800" fill="#000">LEADER</text>
  <text x="226" y="42" font-family="Arial, sans-serif" font-size="50" font-weight="800" fill="#2C78C9">IT</text>
  <text x="75" y="72" font-family="Arial, sans-serif" font-size="24" font-weight="700" fill="#2C78C9">Inovação e Segurança</text>
</svg>
